<mxfile host="Electron" agent="Mozilla/5.0 (Windows NT 10.0; Win64; x64) AppleWebKit/537.36 (KHTML, like Gecko) draw.io/26.1.1 Chrome/132.0.6834.210 Electron/34.3.3 Safari/537.36" version="26.1.1">
  <diagram name="第 1 页" id="5vSXnATNIKdvDdhrOaRR">
    <mxGraphModel dx="2261" dy="2005" grid="1" gridSize="10" guides="1" tooltips="1" connect="1" arrows="1" fold="1" page="1" pageScale="1" pageWidth="827" pageHeight="1169" math="0" shadow="0">
      <root>
        <mxCell id="0" />
        <mxCell id="1" parent="0" />
        <mxCell id="1V7Q92IHUr8dC9_3BMbl-1" value="移动端" style="rounded=1;whiteSpace=wrap;html=1;fillColor=#1ba1e2;fontColor=#ffffff;strokeColor=#006EAF;" vertex="1" parent="1">
          <mxGeometry x="-500" y="-565" width="70" height="35" as="geometry" />
        </mxCell>
        <mxCell id="1V7Q92IHUr8dC9_3BMbl-2" value="PC端" style="rounded=0;whiteSpace=wrap;html=1;direction=south;fillColor=#1ba1e2;fontColor=#ffffff;strokeColor=#006EAF;" vertex="1" parent="1">
          <mxGeometry x="-500" y="-420" width="60" height="120" as="geometry" />
        </mxCell>
        <mxCell id="1V7Q92IHUr8dC9_3BMbl-3" style="edgeStyle=orthogonalEdgeStyle;rounded=0;orthogonalLoop=1;jettySize=auto;html=1;exitX=0.75;exitY=0;exitDx=0;exitDy=0;entryX=0;entryY=0.393;entryDx=0;entryDy=0;entryPerimeter=0;" edge="1" parent="1" source="1V7Q92IHUr8dC9_3BMbl-5" target="1V7Q92IHUr8dC9_3BMbl-15">
          <mxGeometry relative="1" as="geometry" />
        </mxCell>
        <mxCell id="1V7Q92IHUr8dC9_3BMbl-4" value="服务订阅&amp;amp;拉取配置&lt;br&gt;(服务配置、流控配置&lt;br&gt;)" style="edgeLabel;html=1;align=center;verticalAlign=middle;resizable=0;points=[];" vertex="1" connectable="0" parent="1V7Q92IHUr8dC9_3BMbl-3">
          <mxGeometry x="0.1286" y="-3" relative="1" as="geometry">
            <mxPoint as="offset" />
          </mxGeometry>
        </mxCell>
        <mxCell id="1V7Q92IHUr8dC9_3BMbl-5" value="" style="rounded=0;whiteSpace=wrap;html=1;direction=south;fillColor=#FFCE9F;strokeColor=#d79b00;" vertex="1" parent="1">
          <mxGeometry x="-200" y="-660" width="360" height="500" as="geometry" />
        </mxCell>
        <mxCell id="1V7Q92IHUr8dC9_3BMbl-6" style="edgeStyle=orthogonalEdgeStyle;rounded=0;orthogonalLoop=1;jettySize=auto;html=1;exitX=1;exitY=0;exitDx=0;exitDy=0;entryX=0.5;entryY=0;entryDx=0;entryDy=0;dashed=1;" edge="1" parent="1" source="1V7Q92IHUr8dC9_3BMbl-8" target="1V7Q92IHUr8dC9_3BMbl-25">
          <mxGeometry relative="1" as="geometry" />
        </mxCell>
        <mxCell id="1V7Q92IHUr8dC9_3BMbl-7" value="上报流控指标" style="edgeLabel;html=1;align=center;verticalAlign=middle;resizable=0;points=[];" vertex="1" connectable="0" parent="1V7Q92IHUr8dC9_3BMbl-6">
          <mxGeometry x="0.0028" y="-3" relative="1" as="geometry">
            <mxPoint as="offset" />
          </mxGeometry>
        </mxCell>
        <mxCell id="1V7Q92IHUr8dC9_3BMbl-8" value="Poseidon Gateway" style="text;html=1;strokeColor=none;fillColor=none;align=center;verticalAlign=middle;whiteSpace=wrap;rounded=0;fontStyle=1;fontSize=13;" vertex="1" parent="1">
          <mxGeometry x="-130" y="-660" width="210" height="30" as="geometry" />
        </mxCell>
        <mxCell id="1V7Q92IHUr8dC9_3BMbl-9" value="" style="endArrow=classic;html=1;rounded=0;exitX=1;exitY=0.75;exitDx=0;exitDy=0;entryX=0.5;entryY=1;entryDx=0;entryDy=0;" edge="1" parent="1" source="1V7Q92IHUr8dC9_3BMbl-1" target="1V7Q92IHUr8dC9_3BMbl-5">
          <mxGeometry width="50" height="50" relative="1" as="geometry">
            <mxPoint x="-370" y="-540" as="sourcePoint" />
            <mxPoint x="-300" y="-540" as="targetPoint" />
          </mxGeometry>
        </mxCell>
        <mxCell id="1V7Q92IHUr8dC9_3BMbl-10" value="访问" style="edgeLabel;html=1;align=center;verticalAlign=middle;resizable=0;points=[];" vertex="1" connectable="0" parent="1V7Q92IHUr8dC9_3BMbl-9">
          <mxGeometry x="-0.3231" relative="1" as="geometry">
            <mxPoint y="-1" as="offset" />
          </mxGeometry>
        </mxCell>
        <mxCell id="1V7Q92IHUr8dC9_3BMbl-11" value="" style="endArrow=classic;html=1;rounded=0;entryX=0.532;entryY=0.996;entryDx=0;entryDy=0;entryPerimeter=0;" edge="1" parent="1" source="1V7Q92IHUr8dC9_3BMbl-2" target="1V7Q92IHUr8dC9_3BMbl-5">
          <mxGeometry width="50" height="50" relative="1" as="geometry">
            <mxPoint x="-430" y="-450.52" as="sourcePoint" />
            <mxPoint x="-351.02" y="-449.48" as="targetPoint" />
          </mxGeometry>
        </mxCell>
        <mxCell id="1V7Q92IHUr8dC9_3BMbl-12" value="访问" style="edgeLabel;html=1;align=center;verticalAlign=middle;resizable=0;points=[];" vertex="1" connectable="0" parent="1V7Q92IHUr8dC9_3BMbl-11">
          <mxGeometry x="-0.224" y="-2" relative="1" as="geometry">
            <mxPoint as="offset" />
          </mxGeometry>
        </mxCell>
        <mxCell id="1V7Q92IHUr8dC9_3BMbl-13" style="edgeStyle=orthogonalEdgeStyle;rounded=0;orthogonalLoop=1;jettySize=auto;html=1;exitX=0.5;exitY=1;exitDx=0;exitDy=0;entryX=0.25;entryY=0;entryDx=0;entryDy=0;" edge="1" parent="1" source="1V7Q92IHUr8dC9_3BMbl-15" target="1V7Q92IHUr8dC9_3BMbl-29">
          <mxGeometry relative="1" as="geometry" />
        </mxCell>
        <mxCell id="1V7Q92IHUr8dC9_3BMbl-14" value="拉取配置&lt;br&gt;服务配置、流控配置" style="edgeLabel;html=1;align=center;verticalAlign=middle;resizable=0;points=[];" vertex="1" connectable="0" parent="1V7Q92IHUr8dC9_3BMbl-13">
          <mxGeometry x="-0.3159" y="-2" relative="1" as="geometry">
            <mxPoint as="offset" />
          </mxGeometry>
        </mxCell>
        <mxCell id="1V7Q92IHUr8dC9_3BMbl-15" value="" style="rounded=0;whiteSpace=wrap;html=1;" vertex="1" parent="1">
          <mxGeometry x="300" y="-340" width="190" height="140" as="geometry" />
        </mxCell>
        <mxCell id="1V7Q92IHUr8dC9_3BMbl-16" value="&lt;div style=&quot;font-size: 12px;&quot;&gt;&lt;pre style=&quot;font-family: &amp;quot;JetBrains Mono&amp;quot;, monospace; font-size: 12px;&quot;&gt;DispatcherHandler 查找handle&lt;/pre&gt;&lt;/div&gt;" style="rounded=0;whiteSpace=wrap;html=1;fillColor=#008a00;fontColor=#ffffff;strokeColor=#005700;fontSize=12;" vertex="1" parent="1">
          <mxGeometry x="-170" y="-630" width="290" height="40" as="geometry" />
        </mxCell>
        <mxCell id="1V7Q92IHUr8dC9_3BMbl-17" value="&lt;div style=&quot;font-size: 12px;&quot;&gt;&lt;pre style=&quot;font-family: &amp;quot;JetBrains Mono&amp;quot;, monospace; font-size: 12px;&quot;&gt;HandlerMapping 请求映射处理器&lt;/pre&gt;&lt;/div&gt;" style="rounded=0;whiteSpace=wrap;html=1;fillColor=#008a00;fontColor=#ffffff;strokeColor=#005700;fontSize=12;" vertex="1" parent="1">
          <mxGeometry x="-170" y="-570" width="290" height="40" as="geometry" />
        </mxCell>
        <mxCell id="1V7Q92IHUr8dC9_3BMbl-18" value="&lt;div style=&quot;font-size: 12px;&quot;&gt;&lt;pre style=&quot;font-family: &amp;quot;JetBrains Mono&amp;quot;, monospace; font-size: 12px;&quot;&gt;HandlerAdapter 处理器执行策略&lt;/pre&gt;&lt;/div&gt;" style="rounded=0;whiteSpace=wrap;html=1;fillColor=#008a00;fontColor=#ffffff;strokeColor=#005700;fontSize=12;" vertex="1" parent="1">
          <mxGeometry x="-170" y="-510" width="290" height="40" as="geometry" />
        </mxCell>
        <mxCell id="1V7Q92IHUr8dC9_3BMbl-19" value="&lt;div style=&quot;font-size: 12px;&quot;&gt;&lt;pre style=&quot;font-family: &amp;quot;JetBrains Mono&amp;quot;, monospace; font-size: 12px;&quot;&gt;&lt;/pre&gt;&lt;/div&gt;" style="rounded=0;whiteSpace=wrap;html=1;fillColor=#008a00;fontColor=#ffffff;strokeColor=#005700;fontSize=12;" vertex="1" parent="1">
          <mxGeometry x="-170" y="-450" width="290" height="140" as="geometry" />
        </mxCell>
        <mxCell id="1V7Q92IHUr8dC9_3BMbl-20" value="&lt;div style=&quot;font-size: 12px;&quot;&gt;&lt;pre style=&quot;margin-top: 0px; margin-bottom: 0px; padding: 0px; font-family: ConfluenceInstalledFont, monospace; color: rgb(23, 43, 77); font-size: 14px; text-align: left;&quot; data-bidi-marker=&quot;true&quot;&gt;&lt;/pre&gt;&lt;pre style=&quot;font-family: &amp;quot;JetBrains Mono&amp;quot;, monospace; font-size: 12px;&quot;&gt;ReactiveLoadBalancerClientFilter服务订阅 负载均衡&lt;br&gt;&lt;/pre&gt;&lt;pre style=&quot;font-family: &amp;quot;JetBrains Mono&amp;quot;, monospace; font-size: 12px;&quot;&gt;&lt;/pre&gt;&lt;/div&gt;" style="rounded=0;whiteSpace=wrap;html=1;fillColor=#008a00;fontColor=#ffffff;strokeColor=#005700;fontSize=12;" vertex="1" parent="1">
          <mxGeometry x="-170" y="-290" width="290" height="40" as="geometry" />
        </mxCell>
        <mxCell id="1V7Q92IHUr8dC9_3BMbl-21" value="&lt;div style=&quot;font-size: 12px;&quot;&gt;&lt;pre style=&quot;margin-top: 0px; margin-bottom: 0px; padding: 0px; font-family: ConfluenceInstalledFont, monospace; color: rgb(23, 43, 77); font-size: 14px; text-align: left;&quot; data-bidi-marker=&quot;true&quot;&gt;&lt;/pre&gt;&lt;pre style=&quot;font-family: &amp;quot;JetBrains Mono&amp;quot;, monospace; font-size: 12px;&quot;&gt;NettyRoutingFilter 响应式请求转发&lt;br&gt;&lt;/pre&gt;&lt;pre style=&quot;font-family: &amp;quot;JetBrains Mono&amp;quot;, monospace; font-size: 12px;&quot;&gt;&lt;/pre&gt;&lt;/div&gt;" style="rounded=0;whiteSpace=wrap;html=1;fillColor=#008a00;fontColor=#ffffff;strokeColor=#005700;fontSize=12;" vertex="1" parent="1">
          <mxGeometry x="-170" y="-240" width="290" height="40" as="geometry" />
        </mxCell>
        <mxCell id="1V7Q92IHUr8dC9_3BMbl-22" value="&lt;div style=&quot;&quot;&gt;&lt;pre style=&quot;font-family:&#39;JetBrains Mono&#39;,monospace;font-size:10.5pt;&quot;&gt;ReactorAccessGatewayFilter 统一鉴权&lt;/pre&gt;&lt;/div&gt;&lt;div style=&quot;font-size: 12px;&quot;&gt;&lt;pre style=&quot;font-family: &amp;quot;JetBrains Mono&amp;quot;, monospace; font-size: 12px;&quot;&gt;&lt;/pre&gt;&lt;/div&gt;" style="rounded=0;whiteSpace=wrap;html=1;fontSize=12;fillColor=#dae8fc;strokeColor=#6c8ebf;" vertex="1" parent="1">
          <mxGeometry x="-150" y="-370" width="250" height="40" as="geometry" />
        </mxCell>
        <mxCell id="1V7Q92IHUr8dC9_3BMbl-23" style="edgeStyle=orthogonalEdgeStyle;rounded=0;orthogonalLoop=1;jettySize=auto;html=1;exitX=0.5;exitY=1;exitDx=0;exitDy=0;" edge="1" parent="1" source="1V7Q92IHUr8dC9_3BMbl-25">
          <mxGeometry relative="1" as="geometry">
            <mxPoint x="395" y="-340" as="targetPoint" />
          </mxGeometry>
        </mxCell>
        <mxCell id="1V7Q92IHUr8dC9_3BMbl-24" value="持久化配置" style="edgeLabel;html=1;align=center;verticalAlign=middle;resizable=0;points=[];" vertex="1" connectable="0" parent="1V7Q92IHUr8dC9_3BMbl-23">
          <mxGeometry x="0.05" relative="1" as="geometry">
            <mxPoint as="offset" />
          </mxGeometry>
        </mxCell>
        <mxCell id="1V7Q92IHUr8dC9_3BMbl-25" value="" style="rounded=0;whiteSpace=wrap;html=1;" vertex="1" parent="1">
          <mxGeometry x="295" y="-660" width="200" height="250" as="geometry" />
        </mxCell>
        <mxCell id="1V7Q92IHUr8dC9_3BMbl-26" style="edgeStyle=orthogonalEdgeStyle;rounded=0;orthogonalLoop=1;jettySize=auto;html=1;exitX=0.5;exitY=0;exitDx=0;exitDy=0;entryX=1;entryY=0.5;entryDx=0;entryDy=0;" edge="1" parent="1" source="1V7Q92IHUr8dC9_3BMbl-29" target="1V7Q92IHUr8dC9_3BMbl-15">
          <mxGeometry relative="1" as="geometry" />
        </mxCell>
        <mxCell id="1V7Q92IHUr8dC9_3BMbl-27" value="服务注册" style="edgeLabel;html=1;align=center;verticalAlign=middle;resizable=0;points=[];" vertex="1" connectable="0" parent="1V7Q92IHUr8dC9_3BMbl-26">
          <mxGeometry x="0.2051" y="-1" relative="1" as="geometry">
            <mxPoint as="offset" />
          </mxGeometry>
        </mxCell>
        <mxCell id="1V7Q92IHUr8dC9_3BMbl-28" value="上报流控指标" style="edgeLabel;html=1;align=center;verticalAlign=middle;resizable=0;points=[];" vertex="1" connectable="0" parent="1">
          <mxGeometry x="574" y="-25.000000000000455" as="geometry" />
        </mxCell>
        <mxCell id="1V7Q92IHUr8dC9_3BMbl-29" value="" style="rounded=0;whiteSpace=wrap;html=1;direction=south;" vertex="1" parent="1">
          <mxGeometry x="-430" y="-90" width="780" height="70" as="geometry" />
        </mxCell>
        <mxCell id="1V7Q92IHUr8dC9_3BMbl-30" value="微服务" style="rounded=0;whiteSpace=wrap;html=1;fillColor=#60a917;fontColor=#ffffff;strokeColor=#2D7600;" vertex="1" parent="1">
          <mxGeometry x="-420" y="-70" width="140" height="30" as="geometry" />
        </mxCell>
        <mxCell id="1V7Q92IHUr8dC9_3BMbl-31" value="微服务" style="rounded=0;whiteSpace=wrap;html=1;fillColor=#60a917;fontColor=#ffffff;strokeColor=#2D7600;" vertex="1" parent="1">
          <mxGeometry x="-265" y="-70" width="140" height="30" as="geometry" />
        </mxCell>
        <mxCell id="1V7Q92IHUr8dC9_3BMbl-32" value="微服务" style="rounded=0;whiteSpace=wrap;html=1;fillColor=#60a917;fontColor=#ffffff;strokeColor=#2D7600;" vertex="1" parent="1">
          <mxGeometry x="-110" y="-70" width="140" height="30" as="geometry" />
        </mxCell>
        <mxCell id="1V7Q92IHUr8dC9_3BMbl-33" value="微服务" style="rounded=0;whiteSpace=wrap;html=1;fillColor=#60a917;fontColor=#ffffff;strokeColor=#2D7600;" vertex="1" parent="1">
          <mxGeometry x="50" y="-70" width="140" height="30" as="geometry" />
        </mxCell>
        <mxCell id="1V7Q92IHUr8dC9_3BMbl-34" value="配置中心" style="rounded=0;whiteSpace=wrap;html=1;fillColor=#dae8fc;strokeColor=#6c8ebf;" vertex="1" parent="1">
          <mxGeometry x="360" y="-305" width="110" height="30" as="geometry" />
        </mxCell>
        <mxCell id="1V7Q92IHUr8dC9_3BMbl-35" value="注册中心" style="rounded=0;whiteSpace=wrap;html=1;fillColor=#d5e8d4;strokeColor=#82b366;" vertex="1" parent="1">
          <mxGeometry x="360" y="-260" width="110" height="30" as="geometry" />
        </mxCell>
        <mxCell id="1V7Q92IHUr8dC9_3BMbl-36" value="微服务" style="rounded=0;whiteSpace=wrap;html=1;fillColor=#60a917;fontColor=#ffffff;strokeColor=#2D7600;" vertex="1" parent="1">
          <mxGeometry x="200" y="-70" width="140" height="30" as="geometry" />
        </mxCell>
        <mxCell id="1V7Q92IHUr8dC9_3BMbl-37" value="" style="shape=flexArrow;endArrow=classic;html=1;rounded=0;exitX=0.998;exitY=0.575;exitDx=0;exitDy=0;exitPerimeter=0;entryX=0;entryY=0.508;entryDx=0;entryDy=0;entryPerimeter=0;" edge="1" parent="1" source="1V7Q92IHUr8dC9_3BMbl-5" target="1V7Q92IHUr8dC9_3BMbl-29">
          <mxGeometry width="50" height="50" relative="1" as="geometry">
            <mxPoint x="-90" y="-90" as="sourcePoint" />
            <mxPoint x="-40" y="-140" as="targetPoint" />
          </mxGeometry>
        </mxCell>
        <mxCell id="1V7Q92IHUr8dC9_3BMbl-38" value="&lt;span style=&quot;color: rgb(0, 0, 0); font-family: Helvetica; font-size: 12px; font-style: normal; font-variant-ligatures: normal; font-variant-caps: normal; letter-spacing: normal; orphans: 2; text-align: center; text-indent: 0px; text-transform: none; widows: 2; word-spacing: 0px; -webkit-text-stroke-width: 0px; background-color: rgb(255, 255, 255); text-decoration-thickness: initial; text-decoration-style: initial; text-decoration-color: initial; float: none; display: inline !important;&quot;&gt;sentinel-dashboard&lt;/span&gt;" style="text;whiteSpace=wrap;html=1;fontStyle=1" vertex="1" parent="1">
          <mxGeometry x="330" y="-640" width="130" height="30" as="geometry" />
        </mxCell>
        <mxCell id="1V7Q92IHUr8dC9_3BMbl-39" value="流控配置" style="rounded=0;whiteSpace=wrap;html=1;fillColor=#dae8fc;strokeColor=#6c8ebf;" vertex="1" parent="1">
          <mxGeometry x="335" y="-560" width="110" height="30" as="geometry" />
        </mxCell>
        <mxCell id="1V7Q92IHUr8dC9_3BMbl-40" value="" style="rounded=0;whiteSpace=wrap;html=1;fillColor=#dae8fc;strokeColor=#6c8ebf;" vertex="1" parent="1">
          <mxGeometry x="335" y="-480" width="110" height="60" as="geometry" />
        </mxCell>
        <mxCell id="1V7Q92IHUr8dC9_3BMbl-41" value="实时监控" style="rounded=0;whiteSpace=wrap;html=1;fillColor=#dae8fc;strokeColor=#6c8ebf;" vertex="1" parent="1">
          <mxGeometry x="335" y="-600" width="110" height="30" as="geometry" />
        </mxCell>
        <mxCell id="1V7Q92IHUr8dC9_3BMbl-42" value="预警配置" style="rounded=0;whiteSpace=wrap;html=1;fillColor=#dae8fc;strokeColor=#6c8ebf;" vertex="1" parent="1">
          <mxGeometry x="335" y="-520" width="110" height="30" as="geometry" />
        </mxCell>
        <mxCell id="1V7Q92IHUr8dC9_3BMbl-43" value="企业微信" style="rounded=0;whiteSpace=wrap;html=1;" vertex="1" parent="1">
          <mxGeometry x="360" y="-450" width="60" height="20" as="geometry" />
        </mxCell>
        <mxCell id="1V7Q92IHUr8dC9_3BMbl-44" value="流控预警" style="text;html=1;strokeColor=none;fillColor=none;align=center;verticalAlign=middle;whiteSpace=wrap;rounded=0;" vertex="1" parent="1">
          <mxGeometry x="360" y="-480" width="60" height="30" as="geometry" />
        </mxCell>
        <mxCell id="1V7Q92IHUr8dC9_3BMbl-45" value="请求转发" style="text;html=1;strokeColor=none;fillColor=none;align=center;verticalAlign=middle;whiteSpace=wrap;rounded=0;" vertex="1" parent="1">
          <mxGeometry x="-30" y="-150" width="60" height="30" as="geometry" />
        </mxCell>
        <mxCell id="1V7Q92IHUr8dC9_3BMbl-46" value="apollo" style="text;html=1;strokeColor=none;fillColor=none;align=center;verticalAlign=middle;whiteSpace=wrap;rounded=0;" vertex="1" parent="1">
          <mxGeometry x="300" y="-305" width="60" height="30" as="geometry" />
        </mxCell>
        <mxCell id="1V7Q92IHUr8dC9_3BMbl-47" value="nacos" style="text;html=1;strokeColor=none;fillColor=none;align=center;verticalAlign=middle;whiteSpace=wrap;rounded=0;" vertex="1" parent="1">
          <mxGeometry x="300" y="-260" width="60" height="30" as="geometry" />
        </mxCell>
        <mxCell id="1V7Q92IHUr8dC9_3BMbl-48" value="&lt;pre style=&quot;border-color: var(--border-color); color: rgb(255, 255, 255); font-family: &amp;quot;JetBrains Mono&amp;quot;, monospace;&quot;&gt;WebFilter 过滤器&lt;/pre&gt;" style="text;html=1;strokeColor=none;fillColor=none;align=center;verticalAlign=middle;whiteSpace=wrap;rounded=0;" vertex="1" parent="1">
          <mxGeometry x="-90" y="-450" width="120" height="30" as="geometry" />
        </mxCell>
        <mxCell id="1V7Q92IHUr8dC9_3BMbl-49" value="&lt;div style=&quot;&quot;&gt;&lt;pre style=&quot;font-family:&#39;JetBrains Mono&#39;,monospace;font-size:10.5pt;&quot;&gt;SentinelGatewayFilter 统一鉴权&lt;/pre&gt;&lt;/div&gt;&lt;div style=&quot;font-size: 12px;&quot;&gt;&lt;pre style=&quot;font-family: &amp;quot;JetBrains Mono&amp;quot;, monospace; font-size: 12px;&quot;&gt;&lt;/pre&gt;&lt;/div&gt;" style="rounded=0;whiteSpace=wrap;html=1;fontSize=12;fillColor=#dae8fc;strokeColor=#6c8ebf;" vertex="1" parent="1">
          <mxGeometry x="-150" y="-420" width="250" height="40" as="geometry" />
        </mxCell>
      </root>
    </mxGraphModel>
  </diagram>
</mxfile>
